<svg width="150" height="150" viewBox="0 0 150 150" fill="none" xmlns="http://www.w3.org/2000/svg">
<g id="iconamoon:delivery-fast-fill">
<path id="Vector" fill-rule="evenodd" clip-rule="evenodd" d="M6.25 18.75C6.25 17.0924 6.90848 15.5027 8.08058 14.3306C9.25268 13.1585 10.8424 12.5 12.5 12.5H81.25C82.9076 12.5 84.4973 13.1585 85.6694 14.3306C86.8415 15.5027 87.5 17.0924 87.5 18.75V50H112.5C116.604 50 120.667 50.8083 124.459 52.3788C128.25 53.9492 131.695 56.2511 134.597 59.1529C137.499 62.0547 139.801 65.4997 141.371 69.2911C142.942 73.0826 143.75 77.1462 143.75 81.25V106.25C143.751 110.273 142.457 114.19 140.061 117.423C137.665 120.655 134.294 123.031 130.444 124.2C129.297 127.981 126.986 131.304 123.839 133.693C120.692 136.083 116.871 137.417 112.921 137.506C108.971 137.594 105.094 136.433 101.843 134.187C98.5919 131.941 96.1336 128.726 94.8187 125H55.1875C53.8726 128.726 51.4143 131.941 48.1635 134.187C44.9126 136.433 41.0354 137.594 37.0852 137.506C33.135 137.417 29.3138 136.083 26.167 133.693C23.0203 131.304 20.7088 127.981 19.5625 124.2C15.7115 123.032 12.3383 120.656 9.94104 117.424C7.54382 114.192 6.24976 110.274 6.25 106.25V81.25H43.75C45.4076 81.25 46.9973 80.5915 48.1694 79.4194C49.3415 78.2473 50 76.6576 50 75C50 73.3424 49.3415 71.7527 48.1694 70.5806C46.9973 69.4085 45.4076 68.75 43.75 68.75H6.25V56.25H31.25C32.9076 56.25 34.4973 55.5915 35.6694 54.4194C36.8415 53.2473 37.5 51.6576 37.5 50C37.5 48.3424 36.8415 46.7527 35.6694 45.5806C34.4973 44.4085 32.9076 43.75 31.25 43.75H6.25V18.75ZM87.5 112.5H94.8187C96.0543 109.003 98.2994 105.951 101.27 103.73C104.24 101.508 107.803 100.218 111.507 100.022C115.211 99.8263 118.889 100.733 122.078 102.628C125.266 104.523 127.821 107.322 129.419 110.669C130 110.089 130.461 109.4 130.775 108.642C131.09 107.884 131.251 107.071 131.25 106.25V81.25C131.25 76.2772 129.275 71.5081 125.758 67.9917C122.242 64.4754 117.473 62.5 112.5 62.5H87.5V112.5ZM43.75 118.75C43.75 117.092 43.0915 115.503 41.9194 114.331C40.7473 113.158 39.1576 112.5 37.5 112.5C35.8424 112.5 34.2527 113.158 33.0806 114.331C31.9085 115.503 31.25 117.092 31.25 118.75C31.25 120.408 31.9085 121.997 33.0806 123.169C34.2527 124.342 35.8424 125 37.5 125C39.1576 125 40.7473 124.342 41.9194 123.169C43.0915 121.997 43.75 120.408 43.75 118.75ZM108.081 114.331C107.499 114.91 107.038 115.599 106.723 116.357C106.409 117.116 106.248 117.929 106.25 118.75C106.25 120.196 106.751 121.597 107.668 122.715C108.585 123.833 109.861 124.599 111.279 124.881C112.698 125.163 114.17 124.945 115.445 124.264C116.721 123.583 117.72 122.48 118.274 121.144C118.827 119.808 118.901 118.322 118.481 116.938C118.062 115.554 117.175 114.359 115.973 113.555C114.771 112.752 113.327 112.39 111.888 112.531C110.449 112.673 109.104 113.309 108.081 114.331Z" fill="#F49340"/>
</g>
</svg>
