<svg width="125" height="125" viewBox="0 0 125 125" fill="none" xmlns="http://www.w3.org/2000/svg">
<path id="Vector" d="M117.115 62.4248L124.015 50.4998C124.844 49.0651 125.07 47.3597 124.642 45.7588C124.214 44.1578 123.168 42.7922 121.734 41.9623L109.796 35.0623V21.3123C109.796 19.6547 109.138 18.065 107.966 16.8929C106.794 15.7208 105.204 15.0623 103.546 15.0623H89.8024L82.9087 3.13108C82.0761 1.69931 80.7132 0.652987 79.1149 0.218578C78.3222 0.00367744 77.4947 -0.0517357 76.6804 0.0555505C75.8661 0.162837 75.0812 0.430689 74.3712 0.843579L62.4337 7.74358L50.4962 0.837328C49.0607 0.0085636 47.3548 -0.216028 45.7537 0.212959C44.1526 0.641945 42.7875 1.68937 41.9587 3.12483L35.0587 15.0623H21.3149C19.6573 15.0623 18.0676 15.7208 16.8955 16.8929C15.7234 18.065 15.0649 19.6547 15.0649 21.3123V35.0561L3.12744 41.9561C2.41514 42.3658 1.79082 42.9122 1.29034 43.564C0.789869 44.2157 0.423104 44.9599 0.211122 45.7538C-0.000859937 46.5477 -0.0538814 47.3757 0.0551041 48.1902C0.16409 49.0047 0.432933 49.7896 0.84619 50.4998L7.74619 62.4248L0.84619 74.3498C0.0211203 75.7859 -0.202735 77.49 0.223431 79.0904C0.649596 80.6909 1.69122 82.058 3.12119 82.8936L15.0587 89.7936V103.537C15.0587 105.195 15.7172 106.785 16.8893 107.957C18.0614 109.129 19.6511 109.787 21.3087 109.787H35.0587L41.9587 121.725C42.512 122.671 43.302 123.456 44.2511 124.004C45.2001 124.552 46.2754 124.844 47.3712 124.85C48.4587 124.85 49.5399 124.562 50.5024 124.006L62.4274 117.106L74.3649 124.006C75.8001 124.834 77.5048 125.058 79.1053 124.631C80.7058 124.203 82.0714 123.158 82.9024 121.725L89.7962 109.787H103.54C105.198 109.787 106.787 109.129 107.959 107.957C109.131 106.785 109.79 105.195 109.79 103.537V89.7936L121.727 82.8936C122.439 82.4827 123.062 81.9356 123.561 81.2838C124.061 80.6319 124.427 79.8879 124.639 79.0945C124.851 78.301 124.904 77.4736 124.796 76.6595C124.688 75.8453 124.42 75.0605 124.009 74.3498L117.115 62.4248ZM46.8024 31.1123C49.2897 31.1132 51.6747 32.102 53.4329 33.8613C55.191 35.6207 56.1783 38.0063 56.1774 40.4936C56.1766 42.9808 55.1878 45.3658 53.4284 47.124C51.6691 48.8822 49.2834 49.8694 46.7962 49.8686C44.309 49.8678 41.9239 48.8789 40.1658 47.1196C38.4076 45.3603 37.4204 42.9746 37.4212 40.4873C37.422 38.0001 38.4109 35.6151 40.1702 33.8569C41.9295 32.0988 44.3152 31.1115 46.8024 31.1123ZM48.6774 91.1123L38.6774 83.6186L76.1774 33.6186L86.1774 41.1123L48.6774 91.1123ZM78.0524 93.6123C76.8209 93.6119 75.6015 93.3689 74.4638 92.8973C73.3262 92.4256 72.2926 91.7345 71.422 90.8633C70.5515 89.9922 69.861 88.9581 69.3901 87.8202C68.9192 86.6822 68.677 85.4626 68.6774 84.2311C68.6778 82.9995 68.9208 81.7801 69.3925 80.6425C69.8642 79.5048 70.5553 78.4712 71.4264 77.6007C72.2976 76.7301 73.3316 76.0397 74.4696 75.5687C75.6076 75.0978 76.8271 74.8557 78.0587 74.8561C80.5459 74.8569 82.931 75.8457 84.6891 77.6051C86.4473 79.3644 87.4345 81.7501 87.4337 84.2373C87.4329 86.7246 86.444 89.1096 84.6847 90.8677C82.9254 92.6259 80.5397 93.6132 78.0524 93.6123Z" fill="#F49340"/>
</svg>
