<svg xmlns="http://www.w3.org/2000/svg" width="35" height="35" viewBox="0 0 35 35" fill="none">
<path d="M20.3619 7.75273L19.4155 9.44867C18.5613 10.9792 18.9042 12.9869 20.2495 14.3322C20.2495 14.3322 20.2495 14.3322 20.2495 14.3322C20.2496 14.3323 21.8811 15.9641 18.9227 18.9226C15.9649 21.8804 14.3331 20.2502 14.3323 20.2494C14.3323 20.2493 14.3323 20.2494 14.3323 20.2493C12.987 18.9041 10.9792 18.5612 9.44877 19.4153L7.75283 20.3618C5.44176 21.6516 5.16883 24.8926 7.20021 26.924C8.42084 28.1446 9.91616 29.0944 11.5692 29.1571C14.3519 29.2626 19.0776 28.5583 23.818 23.8179C28.5584 19.0775 29.2627 14.3518 29.1572 11.5691C29.0945 9.91606 28.1447 8.42074 26.9241 7.20011C24.8927 5.16872 21.6517 5.44166 20.3619 7.75273Z" fill="#F49340"/>
</svg>