<svg xmlns="http://www.w3.org/2000/svg" width="20" height="20" viewBox="0 0 20 20" fill="none">
  <g clip-path="url(#clip0_124_949)">
    <path d="M12.3566 12.3567C12.6749 12.0492 12.9289 11.6814 13.1036 11.2747C13.2783 10.868 13.3702 10.4306 13.3741 9.988C13.3779 9.5454 13.2936 9.10647 13.126 8.69682C12.9584 8.28716 12.7109 7.91499 12.3979 7.60201C12.0849 7.28904 11.7127 7.04153 11.3031 6.87392C10.8934 6.70632 10.4545 6.62198 10.0119 6.62583C9.56929 6.62967 9.13189 6.72163 8.72521 6.89632C8.31853 7.07102 7.95071 7.32496 7.64323 7.64333C7.03603 8.272 6.70005 9.11401 6.70765 9.988C6.71524 10.862 7.0658 11.698 7.68383 12.3161C8.30186 12.9341 9.1379 13.2846 10.0119 13.2922C10.8859 13.2998 11.7279 12.9639 12.3566 12.3567Z" stroke="#F49340" stroke-width="1.5" stroke-linecap="round" stroke-linejoin="round"/>
    <path d="M5.28576 14.7142L4.10742 15.8925" stroke="#F49340" stroke-width="1.5" stroke-linecap="round" stroke-linejoin="round"/>
    <path d="M5.28576 5.28585L4.10742 4.10751" stroke="#F49340" stroke-width="1.5" stroke-linecap="round" stroke-linejoin="round"/>
    <path d="M14.7141 5.28585L15.8924 4.10751" stroke="#F49340" stroke-width="1.5" stroke-linecap="round" stroke-linejoin="round"/>
    <path d="M14.7141 14.7142L15.8924 15.8925" stroke="#F49340" stroke-width="1.5" stroke-linecap="round" stroke-linejoin="round"/>
    <path d="M3.33341 10H1.66675" stroke="#F49340" stroke-width="1.5" stroke-linecap="round" stroke-linejoin="round"/>
    <path d="M10 3.33332V1.66666" stroke="#F49340" stroke-width="1.5" stroke-linecap="round" stroke-linejoin="round"/>
    <path d="M16.6667 10H18.3334" stroke="#F49340" stroke-width="1.5" stroke-linecap="round" stroke-linejoin="round"/>
    <path d="M10 16.6667V18.3333" stroke="#F49340" stroke-width="1.5" stroke-linecap="round" stroke-linejoin="round"/>
  </g>
  <defs>
    <clipPath id="clip0_124_949">
      <rect width="20" height="20" fill="white"/>
    </clipPath>
  </defs>
</svg>