<svg xmlns="http://www.w3.org/2000/svg" width="42" height="43" viewBox="0 0 42 43" fill="none">
  <g opacity="0.5">
    <path d="M20.7661 18.6906C25.5446 18.6906 29.419 14.9454 29.419 10.2961C29.419 5.64676 25.5446 1.90149 20.7661 1.90149C15.9877 1.90149 12.1133 5.64676 12.1133 10.2961C12.1133 14.9454 15.9877 18.6906 20.7661 18.6906ZM20.7661 4.87188C23.9302 4.87188 26.5132 7.32567 26.5132 10.3606C26.5132 13.3956 23.9302 15.8494 20.7661 15.8494C17.602 15.8494 15.0191 13.3956 15.0191 10.3606C15.0191 7.32567 17.602 4.87188 20.7661 4.87188Z" fill="#64748B"/>
    <path d="M24.9634 21.5964H16.5688C9.65941 21.5964 4.0415 27.2789 4.0415 34.1883V39.5479C4.0415 40.3228 4.68724 41.0331 5.5267 41.0331C6.36615 41.0331 7.01189 40.3874 7.01189 39.5479V34.1883C7.01189 28.8933 11.3383 24.5022 16.6979 24.5022H25.0279C30.323 24.5022 34.714 28.8287 34.714 34.1883V39.5479C34.714 40.3228 35.3597 41.0331 36.1992 41.0331C37.0386 41.0331 37.6843 40.3874 37.6843 39.5479V34.1883C37.4906 27.2789 31.8727 21.5964 24.9634 21.5964Z" fill="#64748B"/>
  </g>
</svg>