<svg xmlns="http://www.w3.org/2000/svg" width="42" height="42" viewBox="0 0 42 42" fill="none">
  <g opacity="0.5">
    <path d="M30.4522 12.7856V11.1067C30.4522 5.94079 26.5778 1.54978 21.6702 1.16234C18.9581 0.904046 16.246 1.87265 14.2443 3.68071C12.2425 5.48877 11.0802 8.07172 11.0802 10.7192V12.7856C7.33489 13.4959 4.49365 16.7892 4.49365 20.7927V32.4805C4.49365 36.7424 7.98063 40.1648 12.1779 40.1648H29.2253C33.4872 40.1648 36.9742 36.6778 36.9742 32.416V20.6636C37.0387 16.7892 34.1975 13.5605 30.4522 12.7856ZM16.1815 5.81164C17.6021 4.52017 19.4747 3.87443 21.4119 4.06815C24.8343 4.39102 27.5464 7.49055 27.5464 11.1067V12.5919H13.986V10.6547C13.986 8.8466 14.7609 7.10311 16.1815 5.81164ZM34.1329 32.4805C34.1329 35.1281 31.9374 37.3236 29.2899 37.3236H12.2425C9.59497 37.3236 7.46404 35.1926 7.46404 32.5451V20.7927C7.46404 17.8869 9.78869 15.5623 12.6945 15.5623H28.8379C31.7437 15.5623 34.1329 17.8869 34.1329 20.6636V32.4805Z" fill="#64748B"/>
    <path d="M20.7664 22.278C19.9916 22.278 19.2812 22.9237 19.2812 23.7631V30.5434C19.2812 31.3183 19.927 32.0286 20.7664 32.0286C21.5413 32.0286 22.2516 31.3828 22.2516 30.5434V23.6986C22.2516 22.9237 21.5413 22.278 20.7664 22.278Z" fill="#64748B"/>
  </g>
</svg>